<svg width="306" height="131"><defs id="SvgjsDefs2083"></defs><g id="SvgjsG2084" featurekey="root" fill="#ffffff" transform="matrix(1,0,0,1,0,0)"></g><g id="SvgjsG2085" featurekey="container1" fill="#000000" transform="matrix(1,0,0,1,0,0)"><rect xmlns="http://www.w3.org/2000/svg" width="306" height="131"></rect></g><g id="SvgjsG2086" featurekey="symbol1" fill="#ffffff" transform="matrix(0.8888888888888888,0,0,0.8888888888888888,8.601777818467884,20.555555555555557)"><g xmlns="http://www.w3.org/2000/svg"><path d="M28.752,54.951c-5.116,9.719-3.333,18.164-0.91,24.455c9.281-11.62,31.774-41.57,31.774-41.57L24.073,95   c20.549-15.29,24.931-11.932,34.681-22.454C68.104,62.455,69.24,40.055,75.927,5C53.93,38.755,36.629,39.984,28.752,54.951z"></path></g></g><g id="SvgjsG2087" featurekey="text1" fill="#ffffff" transform="matrix(4.114426428235309,0,0,4.114426428235309,87.72376564115105,-17.95637982838251)"><path d="M11.254 10.441 c0.18644 0 0.33898 0.13559 0.33898 0.33898 l0 2.0169 c0 0.18644 -0.15254 0.33898 -0.33898 0.33898 l-3.6102 0 l0 10.508 c0 0.22034 -0.13559 0.35576 -0.32203 0.35576 l-1.678 0 c-0.55932 0 -0.88136 -0.38983 -0.88136 -0.91525 l0 -9.9492 l-3.6102 0 c-0.18644 0 -0.35593 -0.13559 -0.35593 -0.33881 l0 -2 c0 -0.20339 0.15254 -0.35593 0.35593 -0.35593 l10.102 0 z M21.762730508474576 21.3053 c0.18644 0 0.33898 0.13559 0.33898 0.33898 l0 2.0169 c0 0.18644 -0.15254 0.33881 -0.33898 0.33881 l-7.9831 0 c-0.16949 0 -0.28814 -0.13543 -0.28814 -0.33881 l0 -12.881 c0 -0.18644 0.13559 -0.33898 0.33898 -0.33898 l2.2034 0 c0.18644 0 0.33898 0.15254 0.33898 0.33898 l0 10.525 l5.3898 0 z M32.93199830508475 13.136 l-5.7459 0.00016552 l0 2.8983 l3.0508 0 c0.18661 0 0.3561 0.15254 0.3561 0.33898 l0 2 c0 0.20339 -0.15254 0.35593 -0.35593 0.35593 l-3.0508 0 l0 2.5763 l5.7458 0 c0.18644 0 0.35593 0.15254 0.35593 0.33898 l0 2 c0 0.20339 -0.15254 0.35576 -0.35593 0.35576 l-8.2712 0 c-0.20339 0 -0.35593 -0.15238 -0.35593 -0.35576 l0 -12.864 c0 -0.18644 0.13559 -0.33898 0.33898 -0.33898 l8.2881 0 c0.18644 0 0.35593 0.15254 0.35593 0.33898 l0 2.0169 c0 0.20322 -0.15254 0.33881 -0.35593 0.33881 z M42.559130508474574 17.2203 l4.2712 6.4237 c0.10153 0.15254 0 0.35576 -0.18644 0.35576 l-2.7966 0 c-0.20339 0 -0.25424 -0.18644 -0.37288 -0.35593 l-2.5932 -3.9153 l-2.5932 3.9153 c-0.10169 0.16949 -0.16949 0.35593 -0.37288 0.35593 l-2.7797 0 c-0.18644 0 -0.28814 -0.20322 -0.18644 -0.35576 l4.2712 -6.4237 l-4.2712 -6.4407 c-0.11864 -0.18644 -0.033898 -0.33898 0.16949 -0.33898 l2.7966 0 c0.18644 0 0.23729 0.15254 0.35593 0.33898 l2.6102 3.9322 l2.6102 -3.9322 c0.11864 -0.18644 0.16949 -0.33898 0.3561 -0.33898 l2.8134 0 c0.20339 0 0.28814 0.15254 0.16949 0.33898 z"></path></g><g id="SvgjsG2088" featurekey="text3" fill="#ffffff" transform="matrix(1.0230137508058637,0,0,1.0230137508058637,119.03836713765791,85.51664713471544)"><path d="M11.5 7.84 l-2.94 0 c-0.34 0 -0.62 0.28 -0.62 0.62 l0 10.92 c0 0.34 -0.28 0.62 -0.62 0.62 l-1.56 0 c-0.34 0 -0.62 -0.28 -0.62 -0.62 l0 -10.92 c0 -0.34 -0.28 -0.62 -0.62 -0.62 l-2.96 0 c-0.34 0 -0.62 -0.28 -0.62 -0.62 l0 -1.24 c0 -0.34 0.28 -0.62 0.62 -0.62 l9.94 0 c0.34 0 0.62 0.28 0.62 0.62 l0 1.24 c0 0.34 -0.28 0.62 -0.62 0.62 z M16.24 20 l-1.58 0 c-0.34 0 -0.62 -0.28 -0.62 -0.62 l0 -13.4 c0 -0.34 0.28 -0.62 0.62 -0.62 l6.04 0 c0.74 0 1.44 0.12 2.06 0.36 c0.62 0.26 1.14 0.6 1.58 1.04 c0.44 0.46 0.8 0.98 1.04 1.6 s0.36 1.3 0.36 2.04 c0 1.1 -0.26 2.08 -0.82 2.9 c-0.44 0.66 -1 1.16 -1.66 1.52 c-0.3 0.16 -0.4 0.48 -0.18 0.74 c0.98 1.32 1.84 2.46 2.8 3.78 c0.2 0.28 0.1 0.66 -0.24 0.66 l-2.02 0 c-0.34 0 -0.78 -0.22 -0.98 -0.48 c-0.46 -0.6 -0.9 -1.22 -1.34 -1.82 l-1.32 -1.86 c-0.2 -0.28 -0.64 -0.5 -0.98 -0.5 l-1.54 0 c-0.34 0 -0.62 0.28 -0.62 0.62 l0 3.42 c0 0.34 -0.26 0.62 -0.6 0.62 z M17.46 12.86 l3.24 0 c0.24 0 0.52 -0.06 0.78 -0.16 c0.28 -0.1 0.52 -0.24 0.74 -0.46 c0.2 -0.2 0.38 -0.46 0.52 -0.76 s0.2 -0.66 0.2 -1.08 c0 -0.22 -0.02 -0.46 -0.08 -0.76 c-0.04 -0.3 -0.16 -0.58 -0.3 -0.84 c-0.16 -0.26 -0.4 -0.5 -0.68 -0.68 c-0.3 -0.18 -0.7 -0.28 -1.18 -0.28 l-3.24 0 c-0.34 0 -0.62 0.28 -0.62 0.62 l0 3.78 c0 0.34 0.28 0.62 0.62 0.62 z M31.02 20 l-1.58 0 c-0.34 0 -0.6 -0.28 -0.6 -0.62 l0 -13.38 c0 -0.34 0.26 -0.62 0.6 -0.62 l1.58 0 c0.34 0 0.62 0.28 0.62 0.62 l0 13.38 c0 0.34 -0.28 0.62 -0.62 0.62 z M45.78 10.38 c-0.12 0.32 -0.28 0.64 -0.48 0.92 s-0.46 0.52 -0.76 0.7 c-0.14 0.1 -0.3 0.18 -0.46 0.24 c-0.26 0.08 -0.24 0.1 0.06 0.18 c0.18 0.06 0.34 0.12 0.52 0.2 c0.36 0.18 0.66 0.42 0.94 0.74 c0.28 0.3 0.52 0.66 0.7 1.06 s0.26 0.82 0.26 1.26 c0 0.8 -0.12 1.48 -0.36 2.04 c-0.24 0.54 -0.56 1 -0.98 1.34 c-0.4 0.34 -0.88 0.58 -1.44 0.72 s-1.14 0.22 -1.78 0.22 l-6.14 0 c-0.34 0 -0.62 -0.28 -0.62 -0.62 l0 -13.4 c0 -0.34 0.28 -0.62 0.62 -0.62 l5.82 0 c0.6 0 1.14 0.06 1.66 0.16 c0.52 0.12 0.98 0.32 1.36 0.64 c0.4 0.3 0.7 0.7 0.92 1.24 c0.24 0.52 0.34 1.2 0.34 2.02 c0 0.3 -0.06 0.62 -0.18 0.96 z M38.66 11.32 l2.82 0 c0.28 0 0.54 -0.06 0.74 -0.16 s0.38 -0.26 0.52 -0.42 c0.14 -0.18 0.24 -0.38 0.32 -0.6 s0.1 -0.44 0.1 -0.66 c0 -0.2 -0.04 -0.42 -0.12 -0.62 s-0.18 -0.38 -0.32 -0.52 c-0.12 -0.14 -0.28 -0.26 -0.46 -0.36 s-0.38 -0.14 -0.58 -0.14 l-3.02 0 c-0.34 0 -0.62 0.28 -0.62 0.62 l0 2.24 c0 0.34 0.28 0.62 0.62 0.62 z M42.68 17.34 c0.22 -0.1 0.4 -0.26 0.56 -0.46 c0.16 -0.18 0.3 -0.4 0.38 -0.64 c0.1 -0.22 0.14 -0.46 0.14 -0.7 c0 -0.5 -0.18 -0.9 -0.54 -1.24 s-0.88 -0.5 -1.52 -0.5 l-3.04 0 c-0.34 0 -0.62 0.28 -0.62 0.62 l0 2.48 c0 0.34 0.28 0.62 0.62 0.62 l3.34 0 c0.24 0 0.48 -0.06 0.68 -0.18 z M47.94 19.46 l6.94 -13.86 c0.16 -0.32 0.64 -0.32 0.8 0 l6.94 13.86 c0.16 0.3 0.02 0.54 -0.32 0.54 l-1.82 0 c-0.34 0 -0.74 -0.24 -0.88 -0.56 l-0.6 -1.2 c-0.16 -0.3 -0.54 -0.54 -0.88 -0.54 l-5.68 0 c-0.34 0 -0.74 0.24 -0.88 0.56 l-0.58 1.18 c-0.16 0.32 -0.54 0.56 -0.88 0.56 l-1.82 0 c-0.34 0 -0.48 -0.24 -0.34 -0.54 z M53.8 15.26 l2.96 0 c0.34 0 0.48 -0.26 0.34 -0.56 l-1.56 -3.3 c-0.14 -0.32 -0.38 -0.32 -0.52 0 l-1.58 3.3 c-0.14 0.32 0.02 0.56 0.36 0.56 z M75.16 18.14 l0 1.24 c0 0.34 -0.28 0.62 -0.62 0.62 l-9.3 0 c-0.34 0 -0.62 -0.28 -0.62 -0.62 l0 -13.4 c0 -0.34 0.28 -0.62 0.62 -0.62 l1.56 0 c0.34 0 0.62 0.28 0.62 0.62 l0 10.92 c0 0.34 0.28 0.62 0.62 0.62 l6.5 0 c0.34 0 0.62 0.28 0.62 0.62 z  M94.3 18.14 l0 1.24 c0 0.34 -0.28 0.62 -0.62 0.62 l-9.3 0 c-0.34 0 -0.62 -0.28 -0.62 -0.62 l0 -13.4 c0 -0.34 0.28 -0.62 0.62 -0.62 l1.56 0 c0.34 0 0.62 0.28 0.62 0.62 l0 10.92 c0 0.34 0.28 0.62 0.62 0.62 l6.5 0 c0.34 0 0.62 0.28 0.62 0.62 z M94.86 19.46 l6.94 -13.86 c0.16 -0.32 0.64 -0.32 0.8 0 l6.94 13.86 c0.16 0.3 0.02 0.54 -0.32 0.54 l-1.82 0 c-0.34 0 -0.74 -0.24 -0.88 -0.56 l-0.6 -1.2 c-0.16 -0.3 -0.54 -0.54 -0.88 -0.54 l-5.68 0 c-0.34 0 -0.74 0.24 -0.88 0.56 l-0.58 1.18 c-0.16 0.32 -0.54 0.56 -0.88 0.56 l-1.82 0 c-0.34 0 -0.48 -0.24 -0.34 -0.54 z M100.72 15.26 l2.96 0 c0.34 0 0.48 -0.26 0.34 -0.56 l-1.56 -3.3 c-0.14 -0.32 -0.38 -0.32 -0.52 0 l-1.58 3.3 c-0.14 0.32 0.02 0.56 0.36 0.56 z M129.34 5.960000000000001 l-5.04 13.82 c-0.12 0.32 -0.58 0.32 -0.72 0.02 l-3.46 -7.76 c-0.14 -0.32 -0.38 -0.32 -0.52 0 l-3.48 7.7 c-0.16 0.3 -0.6 0.3 -0.72 -0.02 l-4.98 -13.76 c-0.12 -0.32 0.06 -0.58 0.4 -0.58 l1.74 0 c0.34 0 0.72 0.26 0.82 0.58 l2.46 6.86 c0.1 0.32 0.32 0.32 0.46 0.02 l3.18 -7.22 c0.14 -0.3 0.6 -0.3 0.74 0 l3.18 7.24 c0.14 0.3 0.36 0.3 0.46 -0.02 l2.52 -6.88 c0.1 -0.32 0.48 -0.58 0.82 -0.58 l1.74 0 c0.34 0 0.52 0.26 0.4 0.58 z"></path></g></svg>